Coordinates
version=1
nRows=20
nColumns=34
inDegrees=yes

Units are S.I. units (second, meters, Newtons, ...)
If the header above contains a line with 'inDegrees', this indicates whether rotational values are in degrees (yes) or radians (no).

endheader
time	pelvis_tilt	pelvis_list	pelvis_rotation	pelvis_tx	pelvis_ty	pelvis_tz	hip_flexion_r	hip_adduction_r	hip_rotation_r	knee_angle_r	ankle_angle_r	subtalar_angle_r	mtp_angle_r	hip_flexion_l	hip_adduction_l	hip_rotation_l	knee_angle_l	ankle_angle_l	subtalar_angle_l	mtp_angle_l	lumbar_extension	lumbar_bending	lumbar_rotation	arm_flex_r	arm_add_r	arm_rot_r	elbow_flex_r	pro_sup_r	arm_flex_l	arm_add_l	arm_rot_l	elbow_flex_l	pro_sup_l
      7.25000000	     -5.02999003	      2.12615486	   -130.58602199	      0.20469821	      0.97208055	     -0.23084645	      2.22605661	      8.16797043	     -5.55949340	      5.04257644	      8.65947323	      8.76339864	      0.00000000	     14.46687869	    -11.52733284	    -24.87302051	     16.36149825	     -4.00364851	    -15.88488704	      0.00000000	     -9.52001277	      8.92209963	     -7.48327477	      9.61989890	     -0.38358116	     15.13943958	     20.14809539	    118.38313278	     10.01456446	     -1.92823590	     16.89036018	     25.83223299	    116.55586849
      7.26666670	     -5.15650718	      2.03823471	   -132.25295372	      0.20402473	      0.97197121	     -0.23204984	      2.22441720	      8.17892347	     -5.01447324	      5.52097203	      8.93505726	      9.03833095	      0.00000000	     14.50722742	    -11.52946658	    -22.91907486	     16.82328599	     -4.56218102	    -14.85897011	      0.00000000	     -9.75914891	      9.22190585	     -7.34112605	      9.30551507	     -0.36106128	     15.13291622	     20.00638849	    118.34758589	     10.06056235	     -1.73075038	     16.91908065	     26.02103710	    116.51762767
      7.28333330	     -5.33534117	      2.05201769	   -134.00978458	      0.20323571	      0.97154799	     -0.23252605	      2.31632959	      8.26717577	     -4.47303327	      6.21252371	      9.40784893	      9.35365101	      0.00000000	     14.49270634	    -11.52050254	    -20.78066664	     17.23003973	     -4.52936677	    -14.07401323	      0.00000000	     -9.93027148	      9.67501462	     -7.13005327	      8.97643691	     -0.46418761	     15.08048451	     19.80220659	    118.29318975	      9.99221361	     -1.53469447	     16.95826554	     26.24615143	    116.47166876
      7.30000000	     -5.55031145	      2.17459928	   -135.79301665	      0.20200165	      0.97100667	     -0.23200325	      2.46490456	      8.42236645	     -4.00219588	      7.07071188	     10.05313004	      9.72923428	      0.00000000	     14.30240329	    -11.49177526	    -18.58063362	     17.30234233	     -3.80271183	    -13.40121106	      0.00000000	     -9.93060897	     10.28403778	     -6.97508800	      8.50074084	     -0.63500451	     15.00041167	     19.54129365	    118.22804733	      9.72305735	     -1.26948497	     17.02589461	     26.46324431	    116.42570811
      7.31666670	     -5.37524758	      2.65921767	   -137.38404276	      0.20110618	      0.96942036	     -0.23071119	      4.01583158	      8.09727386	     -7.24873473	      9.67714822	     12.31884361	     14.18420421	      0.00000000	     14.86776102	    -11.48503368	    -16.67871876	     17.65292290	     -2.01731469	    -12.07356366	      0.00000000	     -9.27880324	     10.98231398	     -7.17235720	      7.80793595	     -0.78662322	     14.09488962	     19.46731215	    117.41037602	      9.24592854	     -0.91562690	     16.95746926	     26.79946985	    115.57714310
      7.33333330	     -5.62076487	      2.78094374	   -139.18034716	      0.19918596	      0.96913301	     -0.22940525	      4.03877795	      8.23968360	     -6.73816031	     10.49469309	     12.92712034	     14.53698405	      0.00000000	     14.27482895	    -11.37854067	    -14.65261276	     17.03782394	     -1.08662681	    -11.33959436	      0.00000000	     -9.26516423	     11.66678095	     -7.14376841	      7.35127280	     -1.09410713	     14.06490908	     19.26882671	    117.37698193	      8.98345165	     -0.72581824	     17.05130201	     26.98911921	    115.55072205
      7.35000000	     -5.73573380	      2.51707022	   -141.05877105	      0.19675271	      0.96901355	     -0.22730819	      4.32980372	      7.51939202	     -8.96943666	     12.44535844	     14.56083413	     18.30932922	      0.00000000	     13.22988796	    -10.92806337	    -13.39704294	     16.04062899	      0.45277434	     -9.82286759	      0.00000000	     -9.38593860	     11.97683294	     -7.24847361	      6.67329539	     -1.29250653	     13.49923365	     19.45778974	    116.90809409	      8.41114623	     -0.55611919	     17.03064628	     27.56015311	    114.97771364
      7.36666670	     -5.92859364	      2.85052519	   -142.78392398	      0.19434122	      0.96850228	     -0.22594160	      4.53657522	      7.76321435	     -8.45581591	     13.32600413	     14.95032143	     18.66666592	      0.00000000	     12.73017578	    -11.07287441	    -11.68219400	     15.13161941	      0.89727416	     -8.97713979	      0.00000000	     -9.21610334	     12.80374121	     -7.49062186	      6.20890036	     -1.50175119	     13.45972359	     19.44088082	    116.88405469	      8.04918052	     -0.39449642	     17.11303226	     27.69741811	    114.96843473
      7.38333330	     -5.82353984	      3.07916135	   -144.91560912	      0.19228136	      0.96773678	     -0.22508709	      5.08075398	      7.56094658	     -8.81103851	     14.50913215	     15.83769132	     20.49246237	      0.00000000	     12.11618230	    -10.99964244	    -10.40825820	     13.80893296	      1.40642123	     -8.20776898	      0.00000000	     -9.15497311	     13.37135680	     -7.30098976	      5.44233531	     -1.93134361	     13.07753101	     20.59578364	    116.71375178	      7.45473118	     -0.35118749	     16.84947095	     28.71456706	    114.77033768
      7.40000000	     -5.69675880	      3.43393430	   -146.95752115	      0.19062655	      0.96695967	     -0.22414018	      5.80795526	      7.34888458	     -9.73601466	     15.84904740	     16.71053305	     22.99475143	      0.00000000	     11.63415151	    -11.10297491	     -9.26187840	     12.40924795	      1.26173185	     -7.18259338	      0.00000000	     -9.03031121	     14.09863477	     -7.16213044	      4.92569100	     -2.25718916	     12.12622881	     20.99514244	    116.46089715	      7.20609308	      0.01873093	     16.15580231	     29.00106916	    114.45723683
      7.41666670	     -5.79648497	      3.97493764	   -148.63768658	      0.18937764	      0.96619667	     -0.22357807	      6.25059694	      7.73418052	     -9.25252607	     16.66503627	     17.00264326	     23.45172574	      0.00000000	     11.29190894	    -11.54461934	     -7.74100498	     11.15477655	      1.11002445	     -5.97031197	      0.00000000	     -9.03369210	     15.07713998	     -7.61533566	      4.83733222	     -2.46695557	     12.01070159	     21.11943257	    116.43822922	      7.17027998	      0.10825063	     16.16463710	     29.17509493	    114.44884384
      7.43333330	     -5.56312253	      4.47927518	   -150.52740679	      0.18753764	      0.96569395	     -0.22287293	      6.75728350	      7.89278899	     -9.04938154	     17.14545657	     16.94576482	     24.24578680	      0.00000000	     10.89073254	    -11.84233305	     -6.36445443	      9.57862345	      0.86898211	     -4.86935899	      0.00000000	     -8.74897693	     15.84149980	     -7.68916323	      4.33168952	     -2.83000351	     11.65477688	     21.70325708	    116.38224509	      6.84044350	      0.17341639	     15.87760402	     29.75994116	    114.37610646
      7.45000000	     -5.28869874	      4.75150979	   -152.27175899	      0.18655475	      0.96532037	     -0.22260938	      7.24657016	      7.86231915	     -8.61191413	     17.62473043	     16.99804065	     24.79598067	      0.00000000	     10.53782178	    -11.97585993	     -4.85463954	      8.26078167	      0.54099561	     -3.77167184	      0.00000000	     -8.71907861	     16.36319717	     -7.93591019	      4.18974279	     -2.98651281	     11.31560462	     22.12145747	    116.33211887	      6.76124928	      0.12109369	     15.60501011	     30.16107307	    114.32680604
      7.46666670	     -4.98789037	      4.93699884	   -153.97134689	      0.18546859	      0.96498925	     -0.22198807	      7.68241360	      7.75467058	     -8.14297731	     18.07646889	     17.00343034	     25.26805113	      0.00000000	     10.05622137	    -12.04907298	     -3.17924637	      6.87850566	      0.40118215	     -2.73484247	      0.00000000	     -8.67832406	     16.76964097	     -8.32479697	      4.02863543	     -3.15181055	     10.93226241	     22.43923149	    116.27612491	      6.61216759	      0.06860892	     15.34837719	     30.49183195	    114.29126344
      7.48333330	     -4.70228308	      5.04231915	   -155.64887258	      0.18407240	      0.96471844	     -0.22127532	      8.00582328	      7.61656613	     -7.62000181	     18.46554964	     17.04414612	     25.70300551	      0.00000000	      9.43723672	    -12.08683847	     -1.32934617	      5.52424191	      0.52957161	     -1.71890345	      0.00000000	     -8.63904372	     17.04953191	     -8.83557966	      3.86540642	     -3.34693918	     10.50356539	     22.64528083	    116.21673584	      6.46290282	      0.05367543	     15.10344622	     30.70796848	    114.26794203
      7.50000000	     -4.45175943	      5.10252231	   -157.35336731	      0.18247845	      0.96462373	     -0.22042299	      8.22029962	      7.46937462	     -7.05804157	     18.76318206	     17.10120123	     26.12864203	      0.00000000	      8.82026050	    -12.12962725	      0.57702584	      4.51616207	      0.87412015	     -0.75162617	      0.00000000	     -8.67814871	     17.27572446	     -9.32019833	      3.75215186	     -3.55055316	     10.06261954	     22.72809858	    116.15927367	      6.34982379	      0.04109966	     14.86582343	     30.81282515	    114.25250137
      7.51666670	     -4.22584964	      5.13462789	   -159.09038885	      0.18091367	      0.96467498	     -0.21948440	      8.40242660	      7.31500809	     -6.42180276	     19.06938659	     17.16810163	     26.58367920	      0.00000000	      8.26247106	    -12.16751655	      2.51322336	      3.82391193	      1.38036400	      0.19968575	      0.00000000	     -8.79389566	     17.51055353	     -9.71316009	      3.72053977	     -3.73508097	      9.64555865	     22.73144483	    116.10836054	      6.26464369	      0.05192459	     14.67061184	     30.84324572	    114.24689134
      7.53333330	     -3.99298281	      5.15812852	   -160.87228230	      0.17916107	      0.96472434	     -0.21842247	      8.56719871	      7.16728042	     -5.80361641	     19.35339491	     17.24911810	     27.07387942	      0.00000000	      7.76328706	    -12.21794699	      4.34217749	      3.29577442	      1.86933871	      1.08850109	      0.00000000	     -8.92085580	     17.74147122	     -9.96385781	      3.73146422	     -3.93788545	      9.22444811	     22.65633962	    116.06086712	      6.18817680	      0.07342487	     14.47819914	     30.79348295	    114.24593102
      7.55000000	     -3.72831392	      5.15707863	   -162.68222004	      0.17772904	      0.96477288	     -0.21729848	      8.78406508	      6.96429107	     -5.16465520	     19.62933629	     17.30065996	     27.59463874	      0.00000000	      7.36732246	    -12.24794206	      6.07893840	      2.90981875	      2.35956998	      1.92354752	      0.00000000	     -9.12844111	     17.91349614	    -10.18562334	      3.75746539	     -4.14840911	      8.86342260	     22.54190236	    116.02495147	      6.14530987	      0.10731953	     14.32721970	     30.67200256	    114.25342423
      7.56666670	     -3.45312624	      5.10796830	   -164.48163781	      0.17649541	      0.96485143	     -0.21614848	      9.00421209	      6.70160722	     -4.50475785	     19.87966242	     17.31325193	     28.13599193	      0.00000000	      7.11642219	    -12.20931567	      7.71323264	      2.76263474	      2.83641992	      2.67043463	      0.00000000	     -9.42115827	     18.03427371	    -10.37388056	      3.87817531	     -4.40091026	      8.57005679	     22.42930985	    115.99984801	      6.17365668	      0.14033483	     14.21253754	     30.47844421	    114.26372279
